<mxfile host="65bd71144e">
    <diagram name="Page-1" id="0L31x0JCxt3D-X1f87Kg">
        <mxGraphModel dx="6013" dy="5360" grid="1" gridSize="10" guides="1" tooltips="1" connect="1" arrows="1" fold="1" page="0" pageScale="1" pageWidth="850" pageHeight="1100" math="0" shadow="0">
            <root>
                <mxCell id="0"/>
                <mxCell id="1" parent="0"/>
                <mxCell id="UhTZSJDojapIAJncs3Ie-1" value="Transaction" style="html=1;overflow=block;blockSpacing=1;whiteSpace=wrap;fontSize=16.7;spacing=9;strokeColor=#000000;rounded=1;absoluteArcSize=1;arcSize=9;fillColor=none;strokeWidth=NaN;lucidId=Yq1gV6EMWY4y;" parent="1" vertex="1">
                    <mxGeometry x="-660.3299999999999" y="-1140" width="105" height="30" as="geometry"/>
                </mxCell>
                <mxCell id="UhTZSJDojapIAJncs3Ie-2" value="Employee" style="html=1;overflow=block;blockSpacing=1;whiteSpace=wrap;fontSize=16.7;spacing=9;strokeColor=#000000;rounded=1;absoluteArcSize=1;arcSize=9;fillColor=none;strokeWidth=NaN;lucidId=8q1gLRhdCn5E;" parent="1" vertex="1">
                    <mxGeometry x="-660.3299999999999" y="-1035" width="105" height="30" as="geometry"/>
                </mxCell>
                <mxCell id="UhTZSJDojapIAJncs3Ie-3" value="TransactionD" style="html=1;overflow=block;blockSpacing=1;whiteSpace=wrap;fontSize=16.7;fontStyle=4;spacing=9;strokeColor=#000000;rounded=1;absoluteArcSize=1;arcSize=9;fillColor=none;strokeWidth=NaN;lucidId=nqdhqJ0Y.3lQ;" parent="1" vertex="1">
                    <mxGeometry x="-570.3299999999999" y="-1110" width="135" height="30" as="geometry"/>
                </mxCell>
                <mxCell id="UhTZSJDojapIAJncs3Ie-4" value="Total" style="html=1;overflow=block;blockSpacing=1;whiteSpace=wrap;fontSize=16.7;spacing=9;strokeColor=#000000;rounded=1;absoluteArcSize=1;arcSize=9;fillColor=none;strokeWidth=NaN;lucidId=XqdhWP~b3AbX;" parent="1" vertex="1">
                    <mxGeometry x="-435.3299999999999" y="-1110" width="105" height="30" as="geometry"/>
                </mxCell>
                <mxCell id="UhTZSJDojapIAJncs3Ie-5" value="Method" style="html=1;overflow=block;blockSpacing=1;whiteSpace=wrap;fontSize=16.7;spacing=9;strokeColor=#000000;rounded=1;absoluteArcSize=1;arcSize=9;fillColor=none;strokeWidth=NaN;lucidId=6qdhl-m-eXuS;" parent="1" vertex="1">
                    <mxGeometry x="-330.3299999999999" y="-1109" width="120" height="30" as="geometry"/>
                </mxCell>
                <mxCell id="UhTZSJDojapIAJncs3Ie-6" value="Date" style="html=1;overflow=block;blockSpacing=1;whiteSpace=wrap;fontSize=16.7;spacing=9;strokeColor=#000000;rounded=1;absoluteArcSize=1;arcSize=9;fillColor=none;strokeWidth=NaN;lucidId=~qdhrhmJoSZu;" parent="1" vertex="1">
                    <mxGeometry x="-210.32999999999993" y="-1110" width="120" height="30" as="geometry"/>
                </mxCell>
                <mxCell id="UhTZSJDojapIAJncs3Ie-7" value="Username" style="html=1;overflow=block;blockSpacing=1;whiteSpace=wrap;fontSize=16.7;spacing=9;strokeColor=#000000;rounded=1;absoluteArcSize=1;arcSize=9;fillColor=none;strokeWidth=NaN;lucidId=AZwh2IDCZcRk;" parent="1" vertex="1">
                    <mxGeometry x="-390.3299999999999" y="-1005" width="120" height="30" as="geometry"/>
                </mxCell>
                <mxCell id="UhTZSJDojapIAJncs3Ie-8" value="Password" style="html=1;overflow=block;blockSpacing=1;whiteSpace=wrap;fontSize=16.7;spacing=9;strokeColor=#000000;rounded=1;absoluteArcSize=1;arcSize=9;fillColor=none;strokeWidth=NaN;lucidId=AZwheVHke3oi;" parent="1" vertex="1">
                    <mxGeometry x="-270.3299999999999" y="-1005" width="120" height="30" as="geometry"/>
                </mxCell>
                <mxCell id="UhTZSJDojapIAJncs3Ie-9" value="StartDate" style="html=1;overflow=block;blockSpacing=1;whiteSpace=wrap;fontSize=16.7;spacing=9;strokeColor=#000000;rounded=1;absoluteArcSize=1;arcSize=9;fillColor=none;strokeWidth=NaN;lucidId=AZwhyjKMd5gG;" parent="1" vertex="1">
                    <mxGeometry x="-150.32999999999993" y="-1005" width="120" height="30" as="geometry"/>
                </mxCell>
                <mxCell id="UhTZSJDojapIAJncs3Ie-10" value="EndDate" style="html=1;overflow=block;blockSpacing=1;whiteSpace=wrap;fontSize=16.7;spacing=9;strokeColor=#000000;rounded=1;absoluteArcSize=1;arcSize=9;fillColor=none;strokeWidth=NaN;lucidId=AZwhG_EfR~ET;" parent="1" vertex="1">
                    <mxGeometry x="-30.329999999999927" y="-1005" width="120" height="30" as="geometry"/>
                </mxCell>
                <mxCell id="UhTZSJDojapIAJncs3Ie-11" value="Email" style="html=1;overflow=block;blockSpacing=1;whiteSpace=wrap;fontSize=16.7;spacing=9;strokeColor=#000000;rounded=1;absoluteArcSize=1;arcSize=9;fillColor=none;strokeWidth=NaN;lucidId=V0whcvL906yf;" parent="1" vertex="1">
                    <mxGeometry x="89.67000000000007" y="-1005" width="120" height="30" as="geometry"/>
                </mxCell>
                <mxCell id="UhTZSJDojapIAJncs3Ie-12" value="PhoneNum" style="html=1;overflow=block;blockSpacing=1;whiteSpace=wrap;fontSize=16.7;spacing=9;strokeColor=#000000;rounded=1;absoluteArcSize=1;arcSize=9;fillColor=none;strokeWidth=NaN;lucidId=80whD2hbYg2R;" parent="1" vertex="1">
                    <mxGeometry x="209.67000000000007" y="-1005" width="120" height="30" as="geometry"/>
                </mxCell>
                <mxCell id="UhTZSJDojapIAJncs3Ie-13" value="Address" style="html=1;overflow=block;blockSpacing=1;whiteSpace=wrap;fontSize=16.7;spacing=9;strokeColor=#000000;rounded=1;absoluteArcSize=1;arcSize=9;fillColor=none;strokeWidth=NaN;lucidId=x1who70yaUuA;" parent="1" vertex="1">
                    <mxGeometry x="329.6700000000001" y="-1005" width="120" height="30" as="geometry"/>
                </mxCell>
                <mxCell id="UhTZSJDojapIAJncs3Ie-14" value="LName" style="html=1;overflow=block;blockSpacing=1;whiteSpace=wrap;fontSize=16.7;spacing=9;strokeColor=#000000;rounded=1;absoluteArcSize=1;arcSize=9;fillColor=none;strokeWidth=NaN;lucidId=q3whD~-cCgUx;" parent="1" vertex="1">
                    <mxGeometry x="-555.3299999999999" y="-1005" width="90" height="30" as="geometry"/>
                </mxCell>
                <mxCell id="UhTZSJDojapIAJncs3Ie-15" value="FName" style="html=1;overflow=block;blockSpacing=1;whiteSpace=wrap;fontSize=16.7;spacing=9;strokeColor=#000000;rounded=1;absoluteArcSize=1;arcSize=9;fillColor=none;strokeWidth=NaN;lucidId=s3whrYaogn3L;" parent="1" vertex="1">
                    <mxGeometry x="-660.3299999999999" y="-1005" width="105" height="30" as="geometry"/>
                </mxCell>
                <mxCell id="UhTZSJDojapIAJncs3Ie-16" value="Department" style="html=1;overflow=block;blockSpacing=1;whiteSpace=wrap;fontSize=16.7;spacing=9;strokeColor=#000000;rounded=1;absoluteArcSize=1;arcSize=9;fillColor=none;strokeWidth=NaN;lucidId=V7whF-TBnMT7;" parent="1" vertex="1">
                    <mxGeometry x="-660.3299999999999" y="-932" width="105" height="30" as="geometry"/>
                </mxCell>
                <mxCell id="UhTZSJDojapIAJncs3Ie-17" value="DepartmentID" style="html=1;overflow=block;blockSpacing=1;whiteSpace=wrap;fontSize=16.7;fontStyle=4;spacing=9;strokeColor=#000000;rounded=1;absoluteArcSize=1;arcSize=9;fillColor=none;strokeWidth=NaN;lucidId=V7whpLSgJsBF;" parent="1" vertex="1">
                    <mxGeometry x="-540.3299999999999" y="-902" width="120" height="30" as="geometry"/>
                </mxCell>
                <mxCell id="UhTZSJDojapIAJncs3Ie-18" value="SupervisorSSN" style="html=1;overflow=block;blockSpacing=1;whiteSpace=wrap;fontSize=16.7;spacing=9;strokeColor=#000000;rounded=1;absoluteArcSize=1;arcSize=9;fillColor=none;strokeWidth=NaN;lucidId=Zdxho9hIk2cQ;" parent="1" vertex="1">
                    <mxGeometry x="449.6700000000001" y="-1005" width="130" height="30" as="geometry"/>
                </mxCell>
                <mxCell id="UhTZSJDojapIAJncs3Ie-19" value="DeptID" style="html=1;overflow=block;blockSpacing=1;whiteSpace=wrap;fontSize=16.7;spacing=9;strokeColor=#000000;rounded=1;absoluteArcSize=1;arcSize=9;fillColor=none;strokeWidth=NaN;lucidId=Wexh.4-Y-VP3;" parent="1" vertex="1">
                    <mxGeometry x="580.6700000000001" y="-1005" width="120" height="30" as="geometry"/>
                </mxCell>
                <mxCell id="UhTZSJDojapIAJncs3Ie-20" value="ManagerSSN" style="html=1;overflow=block;blockSpacing=1;whiteSpace=wrap;fontSize=16.7;spacing=9;strokeColor=#000000;rounded=1;absoluteArcSize=1;arcSize=9;fillColor=none;strokeWidth=NaN;lucidId=MhxhNHQ4AL._;" parent="1" vertex="1">
                    <mxGeometry x="-420.3299999999999" y="-903" width="120" height="30" as="geometry"/>
                </mxCell>
                <mxCell id="UhTZSJDojapIAJncs3Ie-21" value="ManagerStartDate" style="html=1;overflow=block;blockSpacing=1;whiteSpace=wrap;fontSize=16.7;spacing=9;strokeColor=#000000;rounded=1;absoluteArcSize=1;arcSize=9;fillColor=none;strokeWidth=NaN;lucidId=0hxhVE2IZeMM;" parent="1" vertex="1">
                    <mxGeometry x="-300.3299999999999" y="-903" width="150" height="30" as="geometry"/>
                </mxCell>
                <mxCell id="UhTZSJDojapIAJncs3Ie-22" value="ManagerEndDate" style="html=1;overflow=block;blockSpacing=1;whiteSpace=wrap;fontSize=16.7;spacing=9;strokeColor=#000000;rounded=1;absoluteArcSize=1;arcSize=9;fillColor=none;strokeWidth=NaN;lucidId=gixhGlueWvre;" parent="1" vertex="1">
                    <mxGeometry x="-150.32999999999993" y="-903" width="150" height="30" as="geometry"/>
                </mxCell>
                <mxCell id="UhTZSJDojapIAJncs3Ie-23" value="DeptName" style="html=1;overflow=block;blockSpacing=1;whiteSpace=wrap;fontSize=16.7;spacing=9;strokeColor=#000000;rounded=1;absoluteArcSize=1;arcSize=9;fillColor=none;strokeWidth=NaN;lucidId=AjxhQKYyx75y;" parent="1" vertex="1">
                    <mxGeometry x="-660.3299999999999" y="-902" width="120" height="30" as="geometry"/>
                </mxCell>
                <mxCell id="UhTZSJDojapIAJncs3Ie-24" value="SSN" style="html=1;overflow=block;blockSpacing=1;whiteSpace=wrap;fontSize=16.7;fontStyle=4;spacing=9;strokeColor=#000000;rounded=1;absoluteArcSize=1;arcSize=9;fillColor=none;strokeWidth=NaN;lucidId=0jxhKDyI0.M3;" parent="1" vertex="1">
                    <mxGeometry x="-465.3299999999999" y="-1005" width="75" height="30" as="geometry"/>
                </mxCell>
                <mxCell id="UhTZSJDojapIAJncs3Ie-25" value="" style="html=1;jettySize=18;whiteSpace=wrap;fontSize=13;strokeColor=#666666;strokeOpacity=100;strokeWidth=0.8;rounded=1;arcSize=12;edgeStyle=orthogonalEdgeStyle;startArrow=none;endArrow=block;endFill=1;exitX=0.5;exitY=-0.012;exitPerimeter=0;entryX=0.5;entryY=-0.012;entryPerimeter=0;lucidId=1kxhruS2P8~f;fillColor=#f5f5f5;" parent="1" source="UhTZSJDojapIAJncs3Ie-18" target="UhTZSJDojapIAJncs3Ie-24" edge="1">
                    <mxGeometry width="100" height="100" relative="1" as="geometry">
                        <Array as="points"/>
                    </mxGeometry>
                </mxCell>
                <mxCell id="UhTZSJDojapIAJncs3Ie-26" value="" style="html=1;jettySize=18;whiteSpace=wrap;fontSize=13;strokeColor=#666666;strokeOpacity=100;strokeWidth=0.8;rounded=1;arcSize=12;edgeStyle=orthogonalEdgeStyle;startArrow=none;endArrow=block;endFill=1;exitX=0.5;exitY=-0.012;exitPerimeter=0;entryX=0.5;entryY=1.012;entryPerimeter=0;lucidId=7kxh3mrra-k9;fillColor=#f5f5f5;" parent="1" source="UhTZSJDojapIAJncs3Ie-20" target="UhTZSJDojapIAJncs3Ie-24" edge="1">
                    <mxGeometry width="100" height="100" relative="1" as="geometry">
                        <Array as="points"/>
                    </mxGeometry>
                </mxCell>
                <mxCell id="UhTZSJDojapIAJncs3Ie-27" value="" style="html=1;jettySize=18;whiteSpace=wrap;fontSize=13;strokeColor=#666666;strokeOpacity=100;strokeWidth=0.8;rounded=1;arcSize=12;edgeStyle=orthogonalEdgeStyle;startArrow=none;endArrow=block;endFill=1;exitX=0.5;exitY=1.012;exitPerimeter=0;entryX=0.5;entryY=-0.012;entryPerimeter=0;lucidId=YlxhlqVjebws;fillColor=#f5f5f5;" parent="1" source="UhTZSJDojapIAJncs3Ie-19" target="UhTZSJDojapIAJncs3Ie-17" edge="1">
                    <mxGeometry width="100" height="100" relative="1" as="geometry">
                        <Array as="points"/>
                    </mxGeometry>
                </mxCell>
                <mxCell id="UhTZSJDojapIAJncs3Ie-28" value="EmployeeSSN" style="html=1;overflow=block;blockSpacing=1;whiteSpace=wrap;fontSize=16.7;spacing=9;strokeColor=#000000;rounded=1;absoluteArcSize=1;arcSize=9;fillColor=none;strokeWidth=NaN;lucidId=xmxhDJ.Iz-fq;" parent="1" vertex="1">
                    <mxGeometry x="-90.32999999999993" y="-1110" width="130" height="30" as="geometry"/>
                </mxCell>
                <mxCell id="UhTZSJDojapIAJncs3Ie-29" value="" style="html=1;jettySize=18;whiteSpace=wrap;fontSize=13;strokeColor=#3a414a;strokeOpacity=100;strokeWidth=0.8;rounded=1;arcSize=12;edgeStyle=orthogonalEdgeStyle;startArrow=none;endArrow=block;endFill=1;exitX=0.5;exitY=1.012;exitPerimeter=0;entryX=0.5;entryY=-0.012;entryPerimeter=0;lucidId=NmxhPEVHiZgi;" parent="1" source="UhTZSJDojapIAJncs3Ie-28" target="UhTZSJDojapIAJncs3Ie-24" edge="1">
                    <mxGeometry width="100" height="100" relative="1" as="geometry">
                        <Array as="points"/>
                    </mxGeometry>
                </mxCell>
                <mxCell id="UhTZSJDojapIAJncs3Ie-30" value="Time" style="html=1;overflow=block;blockSpacing=1;whiteSpace=wrap;fontSize=16.7;spacing=9;strokeColor=#000000;rounded=1;absoluteArcSize=1;arcSize=9;fillColor=none;strokeWidth=NaN;lucidId=_mxhJ_ihVAgu;" parent="1" vertex="1">
                    <mxGeometry x="-660.3299999999999" y="-1110" width="90" height="30" as="geometry"/>
                </mxCell>
                <mxCell id="UhTZSJDojapIAJncs3Ie-31" value="Customer" style="html=1;overflow=block;blockSpacing=1;whiteSpace=wrap;fontSize=16.7;spacing=9;strokeColor=#000000;rounded=1;absoluteArcSize=1;arcSize=9;fillColor=none;strokeWidth=NaN;lucidId=npxh0uyaCyRX;" parent="1" vertex="1">
                    <mxGeometry x="-660.3299999999999" y="-840" width="105" height="30" as="geometry"/>
                </mxCell>
                <mxCell id="UhTZSJDojapIAJncs3Ie-32" value="CustomerID" style="html=1;overflow=block;blockSpacing=1;whiteSpace=wrap;fontSize=16.7;fontStyle=4;spacing=9;strokeColor=#000000;rounded=1;absoluteArcSize=1;arcSize=9;fillColor=none;strokeWidth=NaN;lucidId=npxhJ9xA.a8S;" parent="1" vertex="1">
                    <mxGeometry x="-660.3299999999999" y="-810" width="105" height="30" as="geometry"/>
                </mxCell>
                <mxCell id="UhTZSJDojapIAJncs3Ie-34" value="" style="html=1;jettySize=18;whiteSpace=wrap;fontSize=13;strokeColor=#666666;strokeOpacity=100;strokeWidth=0.8;rounded=1;arcSize=12;edgeStyle=orthogonalEdgeStyle;startArrow=none;endArrow=block;endFill=1;exitX=0.5;exitY=-0.012;exitPerimeter=0;entryX=-0.004;entryY=0.5;entryPerimeter=0;lucidId=5yxh2ec2hhG.;fillColor=#f5f5f5;" parent="1" target="UhTZSJDojapIAJncs3Ie-32" edge="1">
                    <mxGeometry width="100" height="100" relative="1" as="geometry">
                        <Array as="points">
                            <mxPoint x="89.67000000000007" y="-1155"/>
                            <mxPoint x="-690.3299999999999" y="-1155"/>
                            <mxPoint x="-690.3299999999999" y="-795"/>
                        </Array>
                        <mxPoint x="89.67000000000007" y="-1110.3600000000001" as="sourcePoint"/>
                    </mxGeometry>
                </mxCell>
                <mxCell id="UhTZSJDojapIAJncs3Ie-36" value="FName" style="html=1;overflow=block;blockSpacing=1;whiteSpace=wrap;fontSize=16.7;spacing=9;strokeColor=#000000;rounded=1;absoluteArcSize=1;arcSize=9;fillColor=none;strokeWidth=NaN;lucidId=xzxhWytjlxNh;" parent="1" vertex="1">
                    <mxGeometry x="-555.3299999999999" y="-810" width="120" height="30" as="geometry"/>
                </mxCell>
                <mxCell id="UhTZSJDojapIAJncs3Ie-38" value="CardNumber" style="html=1;overflow=block;blockSpacing=1;whiteSpace=wrap;fontSize=16.7;spacing=9;strokeColor=#000000;rounded=1;absoluteArcSize=1;arcSize=9;fillColor=none;strokeWidth=NaN;lucidId=Dzxh0kTM7rri;" parent="1" vertex="1">
                    <mxGeometry x="164.67000000000007" y="-811" width="120" height="30" as="geometry"/>
                </mxCell>
                <mxCell id="UhTZSJDojapIAJncs3Ie-39" value="LName" style="html=1;overflow=block;blockSpacing=1;whiteSpace=wrap;fontSize=16.7;spacing=9;strokeColor=#000000;rounded=1;absoluteArcSize=1;arcSize=9;fillColor=none;strokeWidth=NaN;lucidId=vAxhLIw62uAn;" parent="1" vertex="1">
                    <mxGeometry x="-435.3299999999999" y="-810" width="120" height="30" as="geometry"/>
                </mxCell>
                <mxCell id="UhTZSJDojapIAJncs3Ie-43" value="Email" style="html=1;overflow=block;blockSpacing=1;whiteSpace=wrap;fontSize=16.7;spacing=9;strokeColor=#000000;rounded=1;absoluteArcSize=1;arcSize=9;fillColor=none;strokeWidth=NaN;lucidId=pExhsK3yjRsr;" parent="1" vertex="1">
                    <mxGeometry x="-315.3299999999999" y="-810" width="120" height="30" as="geometry"/>
                </mxCell>
                <mxCell id="UhTZSJDojapIAJncs3Ie-44" value="PhoneNum" style="html=1;overflow=block;blockSpacing=1;whiteSpace=wrap;fontSize=16.7;spacing=9;strokeColor=#000000;rounded=1;absoluteArcSize=1;arcSize=9;fillColor=none;strokeWidth=NaN;lucidId=pExhnXIh9gMP;" parent="1" vertex="1">
                    <mxGeometry x="-195.32999999999993" y="-810" width="120" height="30" as="geometry"/>
                </mxCell>
                <mxCell id="UhTZSJDojapIAJncs3Ie-45" value="Address" style="html=1;overflow=block;blockSpacing=1;whiteSpace=wrap;fontSize=16.7;spacing=9;strokeColor=#000000;rounded=1;absoluteArcSize=1;arcSize=9;fillColor=none;strokeWidth=NaN;lucidId=pExhKP2ixfmc;" parent="1" vertex="1">
                    <mxGeometry x="-75.32999999999993" y="-810" width="120" height="30" as="geometry"/>
                </mxCell>
                <mxCell id="UhTZSJDojapIAJncs3Ie-47" value="Product" style="html=1;overflow=block;blockSpacing=1;whiteSpace=wrap;fontSize=16.7;spacing=9;strokeColor=#000000;rounded=1;absoluteArcSize=1;arcSize=9;fillColor=none;strokeWidth=NaN;lucidId=I3xhLp7_MDGh;" parent="1" vertex="1">
                    <mxGeometry x="-660.3299999999999" y="-1466" width="105" height="30" as="geometry"/>
                </mxCell>
                <mxCell id="UhTZSJDojapIAJncs3Ie-48" value="Stock" style="html=1;overflow=block;blockSpacing=1;whiteSpace=wrap;fontSize=16.7;spacing=9;strokeColor=#000000;rounded=1;absoluteArcSize=1;arcSize=9;fillColor=none;strokeWidth=NaN;lucidId=I3xh8Iu-50JL;" parent="1" vertex="1">
                    <mxGeometry x="-555.3299999999999" y="-1436" width="120" height="30" as="geometry"/>
                </mxCell>
                <mxCell id="UhTZSJDojapIAJncs3Ie-49" value="Description" style="html=1;overflow=block;blockSpacing=1;whiteSpace=wrap;fontSize=16.7;spacing=9;strokeColor=#000000;rounded=1;absoluteArcSize=1;arcSize=9;fillColor=none;strokeWidth=NaN;lucidId=I3xhb1~k3MBC;" parent="1" vertex="1">
                    <mxGeometry x="-330.3299999999999" y="-1436" width="105" height="30" as="geometry"/>
                </mxCell>
                <mxCell id="UhTZSJDojapIAJncs3Ie-50" value="UnitPrice" style="html=1;overflow=block;blockSpacing=1;whiteSpace=wrap;fontSize=16.7;spacing=9;strokeColor=#000000;rounded=1;absoluteArcSize=1;arcSize=9;fillColor=none;strokeWidth=NaN;lucidId=I3xhuEGo4aVJ;" parent="1" vertex="1">
                    <mxGeometry x="-226.32999999999993" y="-1436" width="105" height="30" as="geometry"/>
                </mxCell>
                <mxCell id="j2eGXd5jl4nRpo58upJa-15" style="edgeStyle=orthogonalEdgeStyle;rounded=0;orthogonalLoop=1;jettySize=auto;html=1;exitX=0.5;exitY=1;exitDx=0;exitDy=0;entryX=0.5;entryY=0;entryDx=0;entryDy=0;" parent="1" source="UhTZSJDojapIAJncs3Ie-51" target="UhTZSJDojapIAJncs3Ie-55" edge="1">
                    <mxGeometry relative="1" as="geometry">
                        <Array as="points">
                            <mxPoint x="-382.3299999999999" y="-1370"/>
                            <mxPoint x="-90.32999999999993" y="-1370"/>
                            <mxPoint x="-90.32999999999993" y="-1260"/>
                            <mxPoint x="-382.3299999999999" y="-1260"/>
                        </Array>
                    </mxGeometry>
                </mxCell>
                <mxCell id="UhTZSJDojapIAJncs3Ie-51" value="SKU" style="html=1;overflow=block;blockSpacing=1;whiteSpace=wrap;fontSize=16.7;fontStyle=4;spacing=9;strokeColor=#000000;rounded=1;absoluteArcSize=1;arcSize=9;fillColor=none;strokeWidth=NaN;lucidId=I3xhfhjUNjbj;" parent="1" vertex="1">
                    <mxGeometry x="-435.3299999999999" y="-1436" width="105" height="30" as="geometry"/>
                </mxCell>
                <mxCell id="UhTZSJDojapIAJncs3Ie-52" value="PName" style="html=1;overflow=block;blockSpacing=1;whiteSpace=wrap;fontSize=16.7;spacing=9;strokeColor=#000000;rounded=1;absoluteArcSize=1;arcSize=9;fillColor=none;strokeWidth=NaN;lucidId=I3xhKr7yX~lY;" parent="1" vertex="1">
                    <mxGeometry x="-660.3299999999999" y="-1436" width="105" height="30" as="geometry"/>
                </mxCell>
                <mxCell id="UhTZSJDojapIAJncs3Ie-53" value="TransactionProducts" style="html=1;overflow=block;blockSpacing=1;whiteSpace=wrap;fontSize=16.7;spacing=9;strokeColor=#000000;rounded=1;absoluteArcSize=1;arcSize=9;fillColor=none;strokeWidth=NaN;lucidId=T3xh0F.bp1L6;" parent="1" vertex="1">
                    <mxGeometry x="-660.3299999999999" y="-1264" width="165" height="30" as="geometry"/>
                </mxCell>
                <mxCell id="j2eGXd5jl4nRpo58upJa-2" style="edgeStyle=orthogonalEdgeStyle;rounded=0;orthogonalLoop=1;jettySize=auto;html=1;exitX=0.5;exitY=1;exitDx=0;exitDy=0;entryX=0.5;entryY=0;entryDx=0;entryDy=0;" parent="1" source="UhTZSJDojapIAJncs3Ie-54" target="UhTZSJDojapIAJncs3Ie-3" edge="1">
                    <mxGeometry relative="1" as="geometry"/>
                </mxCell>
                <mxCell id="UhTZSJDojapIAJncs3Ie-54" value="TransactionID" style="html=1;overflow=block;blockSpacing=1;whiteSpace=wrap;fontSize=16.7;fontStyle=4;spacing=9;strokeColor=#000000;rounded=1;absoluteArcSize=1;arcSize=9;fillColor=none;strokeWidth=NaN;lucidId=T3xhupfZFF7q;" parent="1" vertex="1">
                    <mxGeometry x="-555.3299999999999" y="-1234" width="120" height="30" as="geometry"/>
                </mxCell>
                <mxCell id="UhTZSJDojapIAJncs3Ie-55" value="ProductSKU" style="html=1;overflow=block;blockSpacing=1;whiteSpace=wrap;fontSize=16.7;fontStyle=4;spacing=9;strokeColor=#000000;rounded=1;absoluteArcSize=1;arcSize=9;fillColor=none;strokeWidth=NaN;lucidId=T3xhiu6N-oRH;" parent="1" vertex="1">
                    <mxGeometry x="-435.3299999999999" y="-1234" width="105" height="30" as="geometry"/>
                </mxCell>
                <mxCell id="UhTZSJDojapIAJncs3Ie-56" value="Quantity" style="html=1;overflow=block;blockSpacing=1;whiteSpace=wrap;fontSize=16.7;spacing=9;strokeColor=#000000;rounded=1;absoluteArcSize=1;arcSize=9;fillColor=none;strokeWidth=NaN;lucidId=T3xhVhkVQDwZ;" parent="1" vertex="1">
                    <mxGeometry x="-660.3299999999999" y="-1234" width="105" height="30" as="geometry"/>
                </mxCell>
                <mxCell id="UhTZSJDojapIAJncs3Ie-58" value="Vendor" style="html=1;overflow=block;blockSpacing=1;whiteSpace=wrap;fontSize=16.7;spacing=9;strokeColor=#000000;rounded=1;absoluteArcSize=1;arcSize=9;fillColor=none;strokeWidth=NaN;lucidId=B5xhH_DfAYKg;" parent="1" vertex="1">
                    <mxGeometry x="-660.3299999999999" y="-1568" width="105" height="30" as="geometry"/>
                </mxCell>
                <mxCell id="UhTZSJDojapIAJncs3Ie-59" value="VendorID" style="html=1;overflow=block;blockSpacing=1;whiteSpace=wrap;fontSize=16.7;fontStyle=4;spacing=9;strokeColor=#000000;rounded=1;absoluteArcSize=1;arcSize=9;fillColor=none;strokeWidth=NaN;lucidId=B5xhirVMHGuk;" parent="1" vertex="1">
                    <mxGeometry x="-540.3299999999999" y="-1538" width="105" height="30" as="geometry"/>
                </mxCell>
                <mxCell id="UhTZSJDojapIAJncs3Ie-60" value="Address" style="html=1;overflow=block;blockSpacing=1;whiteSpace=wrap;fontSize=16.7;spacing=9;strokeColor=#000000;rounded=1;absoluteArcSize=1;arcSize=9;fillColor=none;strokeWidth=NaN;lucidId=B5xhxztJ.X1T;" parent="1" vertex="1">
                    <mxGeometry x="-435.3299999999999" y="-1538" width="165" height="30" as="geometry"/>
                </mxCell>
                <mxCell id="UhTZSJDojapIAJncs3Ie-61" value="PhoneNum" style="html=1;overflow=block;blockSpacing=1;whiteSpace=wrap;fontSize=16.7;spacing=9;strokeColor=#000000;rounded=1;absoluteArcSize=1;arcSize=9;fillColor=none;strokeWidth=NaN;lucidId=B5xhot2.PaBt;" parent="1" vertex="1">
                    <mxGeometry x="-270.3299999999999" y="-1538" width="165" height="30" as="geometry"/>
                </mxCell>
                <mxCell id="UhTZSJDojapIAJncs3Ie-69" value="Email" style="html=1;overflow=block;blockSpacing=1;whiteSpace=wrap;fontSize=16.7;spacing=9;strokeColor=#000000;rounded=1;absoluteArcSize=1;arcSize=9;fillColor=none;strokeWidth=NaN;lucidId=g9xhdoX-oe_5;" parent="1" vertex="1">
                    <mxGeometry x="-105.32999999999993" y="-1538" width="165" height="30" as="geometry"/>
                </mxCell>
                <mxCell id="UhTZSJDojapIAJncs3Ie-70" value="VendorBusiness" style="html=1;overflow=block;blockSpacing=1;whiteSpace=wrap;fontSize=16.7;spacing=9;strokeColor=#000000;rounded=1;absoluteArcSize=1;arcSize=9;fillColor=none;strokeWidth=NaN;lucidId=S-xhn~PVt85Q;" parent="1" vertex="1">
                    <mxGeometry x="-690.3299999999999" y="-1840" width="105" height="30" as="geometry"/>
                </mxCell>
                <mxCell id="UhTZSJDojapIAJncs3Ie-71" value="BusinessRegNum" style="html=1;overflow=block;blockSpacing=1;whiteSpace=wrap;fontSize=16.7;fontStyle=4;spacing=9;strokeColor=#000000;rounded=1;absoluteArcSize=1;arcSize=9;fillColor=none;strokeWidth=NaN;lucidId=B_xh7B2Hqomi;" parent="1" vertex="1">
                    <mxGeometry x="-690.3299999999999" y="-1810" width="150" height="27" as="geometry"/>
                </mxCell>
                <mxCell id="UhTZSJDojapIAJncs3Ie-72" value="VName" style="html=1;overflow=block;blockSpacing=1;whiteSpace=wrap;fontSize=16.7;spacing=9;strokeColor=#000000;rounded=1;absoluteArcSize=1;arcSize=9;fillColor=none;strokeWidth=NaN;lucidId=1_xh-u9nwIgR;" parent="1" vertex="1">
                    <mxGeometry x="-660.3299999999999" y="-1538" width="120" height="30" as="geometry"/>
                </mxCell>
                <mxCell id="UhTZSJDojapIAJncs3Ie-73" value="" style="html=1;jettySize=18;whiteSpace=wrap;fontSize=13;strokeColor=#3a414a;strokeOpacity=100;strokeWidth=0.8;rounded=1;arcSize=12;edgeStyle=orthogonalEdgeStyle;startArrow=none;endArrow=block;endFill=1;exitX=0.5;exitY=1.014;exitPerimeter=0;entryX=0.5;entryY=-0.012;entryPerimeter=0;lucidId=-_xh2f8tW5Vg;" parent="1" source="UhTZSJDojapIAJncs3Ie-71" target="UhTZSJDojapIAJncs3Ie-59" edge="1">
                    <mxGeometry width="100" height="100" relative="1" as="geometry">
                        <Array as="points">
                            <mxPoint x="-585.3299999999999" y="-1590"/>
                            <mxPoint x="-487.3299999999999" y="-1590"/>
                        </Array>
                    </mxGeometry>
                </mxCell>
                <mxCell id="UhTZSJDojapIAJncs3Ie-74" value="VendorPrivate" style="html=1;overflow=block;blockSpacing=1;whiteSpace=wrap;fontSize=16.7;spacing=9;strokeColor=#000000;rounded=1;absoluteArcSize=1;arcSize=9;fillColor=none;strokeWidth=NaN;lucidId=s~xh~brEpf3E;" parent="1" vertex="1">
                    <mxGeometry x="-690.3299999999999" y="-1930" width="105" height="30" as="geometry"/>
                </mxCell>
                <mxCell id="UhTZSJDojapIAJncs3Ie-75" value="PersonSSN" style="html=1;overflow=block;blockSpacing=1;whiteSpace=wrap;fontSize=16.7;fontStyle=4;spacing=9;strokeColor=#000000;rounded=1;absoluteArcSize=1;arcSize=9;fillColor=none;strokeWidth=NaN;lucidId=s~xhUaOYNvCe;" parent="1" vertex="1">
                    <mxGeometry x="-690.3299999999999" y="-1900" width="105" height="30" as="geometry"/>
                </mxCell>
                <mxCell id="UhTZSJDojapIAJncs3Ie-76" value="" style="html=1;jettySize=18;whiteSpace=wrap;fontSize=13;strokeColor=#666666;strokeOpacity=100;strokeWidth=0.8;rounded=1;arcSize=12;edgeStyle=orthogonalEdgeStyle;startArrow=none;endArrow=block;endFill=1;exitX=0.5;exitY=1;entryX=0.5;entryY=-0.012;entryPerimeter=0;lucidId=vayhGGh.e3SL;exitDx=0;exitDy=0;fillColor=#f5f5f5;" parent="1" source="2" target="UhTZSJDojapIAJncs3Ie-59" edge="1">
                    <mxGeometry width="100" height="100" relative="1" as="geometry">
                        <Array as="points">
                            <mxPoint x="-502.3299999999999" y="-1680"/>
                            <mxPoint x="-720.3299999999999" y="-1680"/>
                            <mxPoint x="-720.3299999999999" y="-1590"/>
                            <mxPoint x="-487.3299999999999" y="-1590"/>
                        </Array>
                    </mxGeometry>
                </mxCell>
                <mxCell id="UhTZSJDojapIAJncs3Ie-77" value="ContractDocuLink" style="html=1;overflow=block;blockSpacing=1;whiteSpace=wrap;fontSize=16.7;spacing=9;strokeColor=#000000;rounded=1;absoluteArcSize=1;arcSize=9;fillColor=none;strokeWidth=NaN;lucidId=idyhfqxgVqBQ;" parent="1" vertex="1">
                    <mxGeometry x="-540.3299999999999" y="-1810" width="150" height="27" as="geometry"/>
                </mxCell>
                <mxCell id="UhTZSJDojapIAJncs3Ie-78" value="Discount" style="html=1;overflow=block;blockSpacing=1;whiteSpace=wrap;fontSize=16.7;spacing=9;strokeColor=#000000;rounded=1;absoluteArcSize=1;arcSize=9;fillColor=none;strokeWidth=NaN;lucidId=fmyh-OvD49VR;" parent="1" vertex="1">
                    <mxGeometry x="-120.32999999999993" y="-1436" width="105" height="30" as="geometry"/>
                </mxCell>
                <mxCell id="j2eGXd5jl4nRpo58upJa-1" value="IsMember" style="html=1;overflow=block;blockSpacing=1;whiteSpace=wrap;fontSize=16.7;spacing=9;strokeColor=#000000;rounded=1;absoluteArcSize=1;arcSize=9;fillColor=none;strokeWidth=NaN;lucidId=pExhKP2ixfmc;" parent="1" vertex="1">
                    <mxGeometry x="44.67000000000007" y="-811" width="120" height="30" as="geometry"/>
                </mxCell>
                <mxCell id="j2eGXd5jl4nRpo58upJa-3" value="CustomerID" style="html=1;overflow=block;blockSpacing=1;whiteSpace=wrap;fontSize=16.7;spacing=9;strokeColor=#000000;rounded=1;absoluteArcSize=1;arcSize=9;fillColor=none;strokeWidth=NaN;lucidId=xmxhDJ.Iz-fq;" parent="1" vertex="1">
                    <mxGeometry x="39.67000000000007" y="-1110" width="130" height="30" as="geometry"/>
                </mxCell>
                <mxCell id="j2eGXd5jl4nRpo58upJa-5" style="edgeStyle=orthogonalEdgeStyle;rounded=0;orthogonalLoop=1;jettySize=auto;html=1;exitX=0.5;exitY=0;exitDx=0;exitDy=0;entryX=0.5;entryY=1;entryDx=0;entryDy=0;" parent="1" source="j2eGXd5jl4nRpo58upJa-4" target="UhTZSJDojapIAJncs3Ie-59" edge="1">
                    <mxGeometry relative="1" as="geometry"/>
                </mxCell>
                <mxCell id="j2eGXd5jl4nRpo58upJa-4" value="VendorID" style="html=1;overflow=block;blockSpacing=1;whiteSpace=wrap;fontSize=16.7;spacing=9;strokeColor=#000000;rounded=1;absoluteArcSize=1;arcSize=9;fillColor=none;strokeWidth=NaN;lucidId=fmyh-OvD49VR;" parent="1" vertex="1">
                    <mxGeometry x="-15.329999999999927" y="-1436" width="105" height="30" as="geometry"/>
                </mxCell>
                <mxCell id="j2eGXd5jl4nRpo58upJa-6" value="Category" style="html=1;overflow=block;blockSpacing=1;whiteSpace=wrap;fontSize=16.7;spacing=9;strokeColor=#000000;rounded=1;absoluteArcSize=1;arcSize=9;fillColor=none;strokeWidth=NaN;lucidId=I3xhLp7_MDGh;" parent="1" vertex="1">
                    <mxGeometry x="-660.3299999999999" y="-1365" width="105" height="30" as="geometry"/>
                </mxCell>
                <mxCell id="j2eGXd5jl4nRpo58upJa-7" value="&lt;u&gt;CategoryID&lt;/u&gt;" style="html=1;overflow=block;blockSpacing=1;whiteSpace=wrap;fontSize=16.7;spacing=9;strokeColor=#000000;rounded=1;absoluteArcSize=1;arcSize=9;fillColor=none;strokeWidth=NaN;lucidId=I3xh8Iu-50JL;" parent="1" vertex="1">
                    <mxGeometry x="-555.3299999999999" y="-1335" width="120" height="30" as="geometry"/>
                </mxCell>
                <mxCell id="j2eGXd5jl4nRpo58upJa-9" value="Title" style="html=1;overflow=block;blockSpacing=1;whiteSpace=wrap;fontSize=16.7;spacing=9;strokeColor=#000000;rounded=1;absoluteArcSize=1;arcSize=9;fillColor=none;strokeWidth=NaN;lucidId=I3xhKr7yX~lY;" parent="1" vertex="1">
                    <mxGeometry x="-660.3299999999999" y="-1335" width="105" height="30" as="geometry"/>
                </mxCell>
                <mxCell id="j2eGXd5jl4nRpo58upJa-11" style="edgeStyle=orthogonalEdgeStyle;rounded=0;orthogonalLoop=1;jettySize=auto;html=1;exitX=0.5;exitY=1;exitDx=0;exitDy=0;entryX=0.5;entryY=0;entryDx=0;entryDy=0;" parent="1" source="j2eGXd5jl4nRpo58upJa-10" target="j2eGXd5jl4nRpo58upJa-7" edge="1">
                    <mxGeometry relative="1" as="geometry"/>
                </mxCell>
                <mxCell id="j2eGXd5jl4nRpo58upJa-10" value="CategoryID" style="html=1;overflow=block;blockSpacing=1;whiteSpace=wrap;fontSize=16.7;spacing=9;strokeColor=#000000;rounded=1;absoluteArcSize=1;arcSize=9;fillColor=none;strokeWidth=NaN;lucidId=fmyh-OvD49VR;" parent="1" vertex="1">
                    <mxGeometry x="89.67000000000007" y="-1436" width="105" height="30" as="geometry"/>
                </mxCell>
                <mxCell id="j2eGXd5jl4nRpo58upJa-13" value="CategoryType" style="html=1;overflow=block;blockSpacing=1;whiteSpace=wrap;fontSize=16.7;spacing=9;strokeColor=#000000;rounded=1;absoluteArcSize=1;arcSize=9;fillColor=none;strokeWidth=NaN;lucidId=I3xhKr7yX~lY;" parent="1" vertex="1">
                    <mxGeometry x="-435.3299999999999" y="-1335" width="135" height="30" as="geometry"/>
                </mxCell>
                <mxCell id="j2eGXd5jl4nRpo58upJa-14" value="LiquorTax" style="html=1;overflow=block;blockSpacing=1;whiteSpace=wrap;fontSize=16.7;spacing=9;strokeColor=#000000;rounded=1;absoluteArcSize=1;arcSize=9;fillColor=none;strokeWidth=NaN;lucidId=I3xhKr7yX~lY;" parent="1" vertex="1">
                    <mxGeometry x="-300.3299999999999" y="-1335" width="135" height="30" as="geometry"/>
                </mxCell>
                <mxCell id="ApwcupSlBM-B8qe_Yfm7-2" value="UnitPrice" style="html=1;overflow=block;blockSpacing=1;whiteSpace=wrap;fontSize=16.7;spacing=9;strokeColor=#000000;rounded=1;absoluteArcSize=1;arcSize=9;fillColor=none;strokeWidth=NaN;lucidId=I3xhuEGo4aVJ;" parent="1" vertex="1">
                    <mxGeometry x="-330.3299999999999" y="-1234" width="105" height="30" as="geometry"/>
                </mxCell>
                <mxCell id="ApwcupSlBM-B8qe_Yfm7-3" value="Discount" style="html=1;overflow=block;blockSpacing=1;whiteSpace=wrap;fontSize=16.7;spacing=9;strokeColor=#000000;rounded=1;absoluteArcSize=1;arcSize=9;fillColor=none;strokeWidth=NaN;lucidId=fmyh-OvD49VR;" parent="1" vertex="1">
                    <mxGeometry x="-224.32999999999993" y="-1234" width="105" height="30" as="geometry"/>
                </mxCell>
                <mxCell id="2" value="VendorID" style="html=1;overflow=block;blockSpacing=1;whiteSpace=wrap;fontSize=16.7;fontStyle=4;spacing=9;strokeColor=#000000;rounded=1;absoluteArcSize=1;arcSize=9;fillColor=none;strokeWidth=NaN;lucidId=s~xhUaOYNvCe;" vertex="1" parent="1">
                    <mxGeometry x="-585.3299999999999" y="-1900" width="105" height="30" as="geometry"/>
                </mxCell>
            </root>
        </mxGraphModel>
    </diagram>
</mxfile>